<?xml version="1.0" standalone="no"?>
<!DOCTYPE svg PUBLIC "-//W3C//DTD SVG 20010904//EN"
 "http://www.w3.org/TR/2001/REC-SVG-20010904/DTD/svg10.dtd">
<svg version="1.0" xmlns="http://www.w3.org/2000/svg"
 width="111.000000pt" height="111.000000pt" viewBox="0 0 111.000000 111.000000"
 preserveAspectRatio="xMidYMid meet">
<metadata>
Created by potrace 1.11, written by Peter Selinger 2001-2013
</metadata>
<g transform="translate(0.000000,111.000000) scale(0.100000,-0.100000)"
fill="#000000" stroke="none">
<path d="M740 1060 c8 -5 12 -10 9 -10 -4 0 9 -17 27 -37 37 -40 44 -59 17
-48 -65 29 -163 46 -233 41 -65 -4 -115 -11 -115 -16 0 -1 -7 -3 -16 -5 -33
-6 -131 -60 -168 -91 -21 -18 -42 -30 -46 -26 -5 4 -6 2 -2 -4 3 -5 -10 -28
-29 -50 -48 -54 -55 -63 -53 -69 0 -3 -1 -9 -4 -13 -2 -4 -2 -1 -1 6 2 6 -1
12 -6 12 -6 0 -10 -12 -10 -26 0 -14 -4 -23 -8 -20 -5 3 -9 -1 -9 -9 0 -8 5
-11 11 -8 6 4 5 0 -2 -9 -7 -9 -9 -19 -4 -22 14 -9 21 -56 8 -56 -6 0 -4 -5 4
-10 13 -9 13 -10 0 -10 -13 0 -13 -2 -1 -9 8 -5 11 -16 8 -25 -4 -9 -2 -16 4
-16 6 0 9 -6 6 -12 -2 -7 3 -22 12 -32 9 -11 11 -16 5 -13 -7 4 -14 0 -18 -8
-3 -8 3 -19 13 -25 13 -6 17 -17 14 -30 -3 -11 -10 -17 -16 -13 -6 3 -7 1 -3
-5 4 -7 16 -12 28 -12 14 0 18 -5 15 -15 -4 -8 -2 -17 3 -20 6 -3 5 -16 0 -31
-14 -37 -12 -43 6 -14 14 23 14 23 9 3 -4 -14 -2 -23 5 -23 6 0 9 -4 5 -9 -3
-5 -1 -12 4 -16 6 -3 9 -11 7 -18 -1 -7 -1 -9 2 -4 2 4 12 12 23 17 15 8 17 7
13 -5 -3 -8 -10 -12 -15 -9 -15 9 -10 -13 6 -26 8 -6 20 -8 27 -4 11 6 11 5 0
-8 -10 -13 -10 -18 -1 -24 8 -4 9 -3 5 4 -10 17 3 15 21 -3 8 -8 19 -12 25 -9
7 4 8 2 4 -5 -5 -7 -17 -9 -29 -5 -25 7 -23 5 16 -19 15 -10 27 -14 26 -10 -3
18 2 33 10 33 5 0 7 -9 4 -20 -4 -14 0 -20 11 -20 10 0 13 6 10 18 -5 13 -4
14 4 3 6 -8 8 -20 5 -27 -3 -9 2 -12 16 -9 12 3 29 7 39 9 11 3 19 -1 19 -10
0 -10 -4 -11 -14 -3 -9 9 -13 8 -13 0 0 -7 -4 -9 -10 -6 -6 3 -10 2 -10 -4 0
-5 12 -8 28 -6 15 2 31 4 35 4 5 1 5 6 2 11 -3 6 -4 10 -1 10 3 0 13 -12 21
-27 10 -17 14 -20 11 -8 -5 17 -3 16 13 -4 10 -14 26 -26 35 -27 14 -2 15 0 5
12 -13 16 1 20 17 4 13 -13 56 -1 47 14 -4 6 0 5 9 -2 13 -10 18 -10 24 -1 5
8 3 9 -6 4 -8 -5 -11 -4 -7 1 3 6 21 9 40 9 27 -1 34 2 29 13 -4 11 -1 14 12
9 10 -4 15 -3 11 3 -3 6 4 10 15 10 16 0 20 4 16 16 -6 15 -4 15 11 3 11 -9
14 -10 9 -1 -4 8 1 15 16 21 13 5 29 18 37 29 8 12 19 18 24 15 6 -3 7 -1 3 5
-3 6 2 15 11 21 10 6 14 11 8 11 -7 0 -7 3 0 8 36 26 97 160 111 242 9 56 12
230 3 230 -3 0 -6 7 -6 16 0 10 7 7 24 -12 13 -15 23 -31 23 -36 0 -4 4 -8 9
-8 6 0 3 12 -5 28 -7 15 -14 32 -14 37 0 15 -144 202 -187 244 -42 41 -97 81
-110 81 -4 0 -1 -5 7 -10z m-172 -258 c-4 -20 29 -24 47 -5 8 8 15 10 15 4 0
-5 -4 -13 -10 -16 -13 -8 -13 -25 1 -25 5 0 7 5 4 10 -3 6 -1 10 4 10 6 0 11
-4 11 -10 0 -5 5 -10 11 -10 5 0 8 4 4 9 -3 5 -1 12 4 15 10 7 9 -13 -1 -30
-5 -7 3 -10 22 -9 24 1 28 -1 19 -12 -9 -10 -8 -13 0 -13 7 0 9 -5 5 -12 -6
-10 -5 -10 7 -1 9 7 20 8 28 4 11 -7 9 -10 -7 -15 -20 -7 -20 -8 -4 -27 16
-18 18 -18 29 -2 16 21 17 9 2 -20 -9 -18 -9 -20 2 -9 19 18 33 15 14 -4 -14
-15 -14 -18 0 -33 18 -21 20 -35 3 -25 -7 4 -8 3 -4 -4 4 -7 17 -12 29 -12 20
0 20 0 1 -16 -19 -15 -19 -16 1 -10 20 6 20 6 0 -9 -11 -9 -20 -22 -20 -30 0
-32 -118 -111 -182 -121 -71 -12 -112 -13 -155 -3 -44 10 -49 15 -75 67 -29
59 -37 145 -19 187 5 11 10 23 10 26 1 4 15 29 33 56 39 60 99 105 132 98 17
-3 21 0 17 10 -3 9 0 12 10 8 8 -3 13 -12 12 -21z m35 5 c7 3 8 2 4 -2 -14
-16 -36 -14 -29 3 4 10 7 12 10 4 2 -7 9 -9 15 -5z m-436 -111 c0 -8 -8 -17
-18 -19 -15 -4 -16 -2 -6 14 14 23 24 24 24 5z m581 -31 c-3 -3 -9 2 -12 12
-6 14 -5 15 5 6 7 -7 10 -15 7 -18z m-595 -10 c-3 -9 -8 -14 -10 -11 -3 3 -2
9 2 15 9 16 15 13 8 -4z m637 -45 c0 -5 -2 -10 -4 -10 -3 0 -8 5 -11 10 -3 6
-1 10 4 10 6 0 11 -4 11 -10z m-560 -340 c0 -5 -5 -10 -11 -10 -5 0 -7 5 -4
10 3 6 8 10 11 10 2 0 4 -4 4 -10z m95 -80 c3 -5 1 -10 -4 -10 -6 0 -11 5 -11
10 0 6 2 10 4 10 3 0 8 -4 11 -10z m205 -90 c8 -5 11 -10 5 -10 -5 0 -17 5
-25 10 -8 5 -10 10 -5 10 6 0 17 -5 25 -10z m14 -36 c3 -8 2 -12 -4 -9 -6 3
-10 10 -10 16 0 14 7 11 14 -7z"/>
<path d="M585 679 c-13 -20 -65 -193 -60 -198 13 -12 25 18 80 197 5 15 -11
16 -20 1z"/>
<path d="M438 617 c-21 -12 -38 -27 -38 -34 0 -6 20 -23 45 -36 33 -19 45 -22
45 -12 0 8 -14 22 -32 31 l-31 16 31 20 c18 11 32 24 32 29 0 13 -11 10 -52
-14z"/>
<path d="M640 631 c0 -5 14 -18 31 -29 l31 -19 -31 -19 c-30 -18 -41 -34 -22
-34 18 0 81 42 81 53 0 7 -18 22 -40 35 -43 24 -50 26 -50 13z"/>
<path d="M91 634 c0 -11 3 -14 6 -6 3 7 2 16 -1 19 -3 4 -6 -2 -5 -13z"/>
<path d="M159 368 c-10 -32 2 -61 15 -39 4 5 2 12 -4 16 -6 4 -8 11 -5 16 4 5
4 9 1 9 -3 0 -6 -1 -7 -2z"/>
<path d="M470 71 c0 -6 4 -12 8 -15 5 -3 9 1 9 9 0 8 -4 15 -9 15 -4 0 -8 -4
-8 -9z"/>
</g>
</svg>
